<svg width="360" height="33" viewBox="0 0 360 33" fill="none" xmlns="http://www.w3.org/2000/svg">
<path d="M-0.633802 10C-0.984223 10 -1.26855 10.284 -1.26855 10.6344V13.3804C-1.26855 13.7308 -0.984223 14.0151 -0.633802 14.0151C-0.283381 14.0151 0.00094986 13.7308 0.00094986 13.3804V10.6344C0.00094986 10.284 -0.283381 10 -0.633802 10Z" fill="#725994"/>
<path d="M1.63475 10C1.28397 10 1 10.284 1 10.6344V13.8074C1 14.1582 1.28397 14.4422 1.63475 14.4422C1.98517 14.4422 2.26914 14.1582 2.26914 13.8074V10.6344C2.26914 10.284 1.98517 10 1.63475 10Z" fill="#725994"/>
<path d="M4.81053 7C4.46011 7 4.17578 7.28433 4.17578 7.63475V16.421C4.17578 16.7718 4.46011 17.0558 4.81053 17.0558C5.16095 17.0558 5.44528 16.7718 5.44528 16.421V7.63475C5.44528 7.28433 5.16095 7 4.81053 7Z" fill="#725994"/>
<path d="M7.98045 3C7.63003 3 7.3457 3.28397 7.3457 3.63439V21.4038C7.3457 21.7542 7.63003 22.0385 7.98045 22.0385C8.33087 22.0385 8.6152 21.7542 8.6152 21.4038V3.63439C8.6152 3.28397 8.33087 3 7.98045 3Z" fill="#725994"/>
<path d="M11.1543 6C10.8039 6 10.5195 6.28397 10.5195 6.63475V17.423C10.5195 17.7734 10.8039 18.0577 11.1543 18.0577C11.5047 18.0577 11.789 17.7734 11.789 17.423V6.63475C11.789 6.28397 11.5047 6 11.1543 6Z" fill="#725994"/>
<path d="M20.735 4C20.3846 4 20.1006 4.28397 20.1006 4.63475V18.9127C20.1006 19.2631 20.3846 19.547 20.735 19.547C21.0854 19.547 21.3697 19.2631 21.3697 18.9127V4.63475C21.3697 4.28397 21.0854 4 20.735 4Z" fill="#725994"/>
<path d="M27.0195 5C26.6691 5 26.3848 5.28433 26.3848 5.63475V18.3269C26.3848 18.6776 26.6691 18.9616 27.0195 18.9616C27.3699 18.9616 27.6539 18.6776 27.6539 18.3269V5.63475C27.6539 5.28433 27.3699 5 27.0195 5Z" fill="#725994"/>
<path d="M30.1924 8C29.8419 8 29.5576 8.28433 29.5576 8.63475V14.9808C29.5576 15.3312 29.8419 15.6156 30.1924 15.6156C30.5428 15.6156 30.8268 15.3312 30.8268 14.9808V8.63475C30.8268 8.28433 30.5428 8 30.1924 8Z" fill="#725994"/>
<path d="M23.8457 0C23.4949 0 23.2109 0.284331 23.2109 0.634751V23.4807C23.2109 23.8315 23.4949 24.1155 23.8457 24.1155C24.1961 24.1155 24.4801 23.8315 24.4801 23.4807V0.634751C24.4801 0.284331 24.1961 0 23.8457 0Z" fill="#725994"/>
<path d="M14.3268 10C13.9764 10 13.6924 10.2843 13.6924 10.6348V13.173C13.6924 13.5238 13.9764 13.8078 14.3268 13.8078C14.6772 13.8078 14.9615 13.5238 14.9615 13.173V10.6348C14.9615 10.2843 14.6772 10 14.3268 10Z" fill="#725994"/>
<path d="M33.3662 10C33.0158 10 32.7314 10.284 32.7314 10.6344V13.3804C32.7314 13.7308 33.0158 14.0151 33.3662 14.0151C33.7166 14.0151 34.0009 13.7308 34.0009 13.3804V10.6344C34.0009 10.284 33.7166 10 33.3662 10Z" fill="#725994"/>
<path d="M17.4404 9C17.0896 9 16.8057 9.28397 16.8057 9.63439V14.8003C16.8057 15.1507 17.0896 15.435 17.4404 15.435C17.7908 15.435 18.0748 15.1507 18.0748 14.8003V9.63439C18.0748 9.28397 17.7908 9 17.4404 9Z" fill="#725994"/>
<path d="M35.6348 10C35.284 10 35 10.284 35 10.6344V13.8074C35 14.1582 35.284 14.4422 35.6348 14.4422C35.9852 14.4422 36.2691 14.1582 36.2691 13.8074V10.6344C36.2691 10.284 35.9852 10 35.6348 10Z" fill="#725994"/>
<path d="M38.8105 7C38.4601 7 38.1758 7.28433 38.1758 7.63475V16.421C38.1758 16.7718 38.4601 17.0558 38.8105 17.0558C39.161 17.0558 39.4453 16.7718 39.4453 16.421V7.63475C39.4453 7.28433 39.161 7 38.8105 7Z" fill="#725994"/>
<path d="M41.9805 3C41.63 3 41.3457 3.28397 41.3457 3.63439V21.4038C41.3457 21.7542 41.63 22.0385 41.9805 22.0385C42.3309 22.0385 42.6152 21.7542 42.6152 21.4038V3.63439C42.6152 3.28397 42.3309 3 41.9805 3Z" fill="#725994"/>
<path d="M45.1543 6C44.8039 6 44.5195 6.28397 44.5195 6.63475V17.423C44.5195 17.7734 44.8039 18.0577 45.1543 18.0577C45.5047 18.0577 45.789 17.7734 45.789 17.423V6.63475C45.789 6.28397 45.5047 6 45.1543 6Z" fill="#725994"/>
<path d="M54.735 4C54.3846 4 54.1006 4.28397 54.1006 4.63475V18.9127C54.1006 19.2631 54.3846 19.547 54.735 19.547C55.0854 19.547 55.3697 19.2631 55.3697 18.9127V4.63475C55.3697 4.28397 55.0854 4 54.735 4Z" fill="#725994"/>
<path d="M61.0195 5C60.6691 5 60.3848 5.28433 60.3848 5.63475V18.3269C60.3848 18.6776 60.6691 18.9616 61.0195 18.9616C61.3699 18.9616 61.6539 18.6776 61.6539 18.3269V5.63475C61.6539 5.28433 61.3699 5 61.0195 5Z" fill="#725994"/>
<path d="M64.1924 8C63.8419 8 63.5576 8.28433 63.5576 8.63475V14.9808C63.5576 15.3312 63.8419 15.6156 64.1924 15.6156C64.5428 15.6156 64.8268 15.3312 64.8268 14.9808V8.63475C64.8268 8.28433 64.5428 8 64.1924 8Z" fill="#725994"/>
<path d="M57.8457 0C57.4949 0 57.2109 0.284331 57.2109 0.634751V23.4807C57.2109 23.8315 57.4949 24.1155 57.8457 24.1155C58.1961 24.1155 58.4801 23.8315 58.4801 23.4807V0.634751C58.4801 0.284331 58.1961 0 57.8457 0Z" fill="#725994"/>
<path d="M48.3268 10C47.9764 10 47.6924 10.2843 47.6924 10.6348V13.173C47.6924 13.5238 47.9764 13.8078 48.3268 13.8078C48.6772 13.8078 48.9615 13.5238 48.9615 13.173V10.6348C48.9615 10.2843 48.6772 10 48.3268 10Z" fill="#725994"/>
<path d="M67.3662 10C67.0158 10 66.7314 10.284 66.7314 10.6344V13.3804C66.7314 13.7308 67.0158 14.0151 67.3662 14.0151C67.7166 14.0151 68.0009 13.7308 68.0009 13.3804V10.6344C68.0009 10.284 67.7166 10 67.3662 10Z" fill="#725994"/>
<path d="M51.4404 9C51.0896 9 50.8057 9.28397 50.8057 9.63439V14.8003C50.8057 15.1507 51.0896 15.435 51.4404 15.435C51.7908 15.435 52.0748 15.1507 52.0748 14.8003V9.63439C52.0748 9.28397 51.7908 9 51.4404 9Z" fill="#725994"/>
<path d="M69.6348 10C69.284 10 69 10.284 69 10.6344V13.8074C69 14.1582 69.284 14.4422 69.6348 14.4422C69.9852 14.4422 70.2691 14.1582 70.2691 13.8074V10.6344C70.2691 10.284 69.9852 10 69.6348 10Z" fill="#725994"/>
<path d="M72.8105 7C72.4601 7 72.1758 7.28433 72.1758 7.63475V16.421C72.1758 16.7718 72.4601 17.0558 72.8105 17.0558C73.161 17.0558 73.4453 16.7718 73.4453 16.421V7.63475C73.4453 7.28433 73.161 7 72.8105 7Z" fill="#725994"/>
<path d="M75.9805 3C75.63 3 75.3457 3.28397 75.3457 3.63439V21.4038C75.3457 21.7542 75.63 22.0385 75.9805 22.0385C76.3309 22.0385 76.6152 21.7542 76.6152 21.4038V3.63439C76.6152 3.28397 76.3309 3 75.9805 3Z" fill="#725994"/>
<path d="M79.1543 6C78.8039 6 78.5195 6.28397 78.5195 6.63475V17.423C78.5195 17.7734 78.8039 18.0577 79.1543 18.0577C79.5047 18.0577 79.789 17.7734 79.789 17.423V6.63475C79.789 6.28397 79.5047 6 79.1543 6Z" fill="#725994"/>
<path d="M88.736 4C88.3855 4 88.1016 4.28397 88.1016 4.63475V18.9127C88.1016 19.2631 88.3855 19.547 88.736 19.547C89.0864 19.547 89.3707 19.2631 89.3707 18.9127V4.63475C89.3707 4.28397 89.0864 4 88.736 4Z" fill="#725994"/>
<path d="M95.0195 5C94.6691 5 94.3848 5.28433 94.3848 5.63475V18.3269C94.3848 18.6776 94.6691 18.9616 95.0195 18.9616C95.3699 18.9616 95.6539 18.6776 95.6539 18.3269V5.63475C95.6539 5.28433 95.3699 5 95.0195 5Z" fill="#725994"/>
<path d="M98.1933 8C97.8429 8 97.5586 8.28433 97.5586 8.63475V14.9808C97.5586 15.3312 97.8429 15.6156 98.1933 15.6156C98.5438 15.6156 98.8277 15.3312 98.8277 14.9808V8.63475C98.8277 8.28433 98.5438 8 98.1933 8Z" fill="#725994"/>
<path d="M91.8457 0C91.4949 0 91.2109 0.284331 91.2109 0.634751V23.4807C91.2109 23.8315 91.4949 24.1155 91.8457 24.1155C92.1961 24.1155 92.4801 23.8315 92.4801 23.4807V0.634751C92.4801 0.284331 92.1961 0 91.8457 0Z" fill="#725994"/>
<path d="M82.3268 10C81.9764 10 81.6924 10.2843 81.6924 10.6348V13.173C81.6924 13.5238 81.9764 13.8078 82.3268 13.8078C82.6772 13.8078 82.9615 13.5238 82.9615 13.173V10.6348C82.9615 10.2843 82.6772 10 82.3268 10Z" fill="#725994"/>
<path d="M101.365 10C101.015 10 100.73 10.284 100.73 10.6344V13.3804C100.73 13.7308 101.015 14.0151 101.365 14.0151C101.716 14.0151 102 13.7308 102 13.3804V10.6344C102 10.284 101.716 10 101.365 10Z" fill="#725994"/>
<path d="M85.4394 9C85.0887 9 84.8047 9.28397 84.8047 9.63439V14.8003C84.8047 15.1507 85.0887 15.435 85.4394 15.435C85.7899 15.435 86.0738 15.1507 86.0738 14.8003V9.63439C86.0738 9.28397 85.7899 9 85.4394 9Z" fill="#725994"/>
<path d="M103.635 10C103.284 10 103 10.284 103 10.6344V13.8074C103 14.1582 103.284 14.4422 103.635 14.4422C103.985 14.4422 104.269 14.1582 104.269 13.8074V10.6344C104.269 10.284 103.985 10 103.635 10Z" fill="#725994"/>
<path d="M106.811 7C106.46 7 106.176 7.28433 106.176 7.63475V16.421C106.176 16.7718 106.46 17.0558 106.811 17.0558C107.161 17.0558 107.445 16.7718 107.445 16.421V7.63475C107.445 7.28433 107.161 7 106.811 7Z" fill="#725994"/>
<path d="M109.98 3C109.63 3 109.346 3.28397 109.346 3.63439V21.4038C109.346 21.7542 109.63 22.0385 109.98 22.0385C110.331 22.0385 110.615 21.7542 110.615 21.4038V3.63439C110.615 3.28397 110.331 3 109.98 3Z" fill="#725994"/>
<path d="M113.154 6C112.804 6 112.52 6.28397 112.52 6.63475V17.423C112.52 17.7734 112.804 18.0577 113.154 18.0577C113.505 18.0577 113.789 17.7734 113.789 17.423V6.63475C113.789 6.28397 113.505 6 113.154 6Z" fill="#725994"/>
<path d="M122.735 4C122.385 4 122.101 4.28397 122.101 4.63475V18.9127C122.101 19.2631 122.385 19.547 122.735 19.547C123.085 19.547 123.37 19.2631 123.37 18.9127V4.63475C123.37 4.28397 123.085 4 122.735 4Z" fill="#725994"/>
<path d="M129.02 5C128.669 5 128.385 5.28433 128.385 5.63475V18.3269C128.385 18.6776 128.669 18.9616 129.02 18.9616C129.37 18.9616 129.654 18.6776 129.654 18.3269V5.63475C129.654 5.28433 129.37 5 129.02 5Z" fill="#725994"/>
<path d="M132.192 8C131.842 8 131.558 8.28433 131.558 8.63475V14.9808C131.558 15.3312 131.842 15.6156 132.192 15.6156C132.543 15.6156 132.827 15.3312 132.827 14.9808V8.63475C132.827 8.28433 132.543 8 132.192 8Z" fill="#725994"/>
<path d="M125.846 0C125.495 0 125.211 0.284331 125.211 0.634751V23.4807C125.211 23.8315 125.495 24.1155 125.846 24.1155C126.196 24.1155 126.48 23.8315 126.48 23.4807V0.634751C126.48 0.284331 126.196 0 125.846 0Z" fill="#725994"/>
<path d="M116.327 10C115.976 10 115.692 10.2843 115.692 10.6348V13.173C115.692 13.5238 115.976 13.8078 116.327 13.8078C116.677 13.8078 116.962 13.5238 116.962 13.173V10.6348C116.962 10.2843 116.677 10 116.327 10Z" fill="#725994"/>
<path d="M135.366 10C135.016 10 134.731 10.284 134.731 10.6344V13.3804C134.731 13.7308 135.016 14.0151 135.366 14.0151C135.717 14.0151 136.001 13.7308 136.001 13.3804V10.6344C136.001 10.284 135.717 10 135.366 10Z" fill="#725994"/>
<path d="M119.44 9C119.09 9 118.806 9.28397 118.806 9.63439V14.8003C118.806 15.1507 119.09 15.435 119.44 15.435C119.791 15.435 120.075 15.1507 120.075 14.8003V9.63439C120.075 9.28397 119.791 9 119.44 9Z" fill="#725994"/>
<path d="M137.635 10C137.284 10 137 10.284 137 10.6344V13.8074C137 14.1582 137.284 14.4422 137.635 14.4422C137.985 14.4422 138.269 14.1582 138.269 13.8074V10.6344C138.269 10.284 137.985 10 137.635 10Z" fill="#E0E0E0"/>
<path d="M140.811 7C140.46 7 140.176 7.28433 140.176 7.63475V16.421C140.176 16.7718 140.46 17.0558 140.811 17.0558C141.161 17.0558 141.445 16.7718 141.445 16.421V7.63475C141.445 7.28433 141.161 7 140.811 7Z" fill="#E0E0E0"/>
<path d="M143.98 3C143.63 3 143.346 3.28397 143.346 3.63439V21.4038C143.346 21.7542 143.63 22.0385 143.98 22.0385C144.331 22.0385 144.615 21.7542 144.615 21.4038V3.63439C144.615 3.28397 144.331 3 143.98 3Z" fill="#E0E0E0"/>
<path d="M147.154 6C146.804 6 146.52 6.28397 146.52 6.63475V17.423C146.52 17.7734 146.804 18.0577 147.154 18.0577C147.505 18.0577 147.789 17.7734 147.789 17.423V6.63475C147.789 6.28397 147.505 6 147.154 6Z" fill="#E0E0E0"/>
<path d="M156.735 4C156.385 4 156.101 4.28397 156.101 4.63475V18.9127C156.101 19.2631 156.385 19.547 156.735 19.547C157.085 19.547 157.37 19.2631 157.37 18.9127V4.63475C157.37 4.28397 157.085 4 156.735 4Z" fill="#E0E0E0"/>
<path d="M163.02 5C162.669 5 162.385 5.28433 162.385 5.63475V18.3269C162.385 18.6776 162.669 18.9616 163.02 18.9616C163.37 18.9616 163.654 18.6776 163.654 18.3269V5.63475C163.654 5.28433 163.37 5 163.02 5Z" fill="#E0E0E0"/>
<path d="M166.192 8C165.842 8 165.558 8.28433 165.558 8.63475V14.9808C165.558 15.3312 165.842 15.6156 166.192 15.6156C166.543 15.6156 166.827 15.3312 166.827 14.9808V8.63475C166.827 8.28433 166.543 8 166.192 8Z" fill="#E0E0E0"/>
<path d="M159.846 0C159.495 0 159.211 0.284331 159.211 0.634751V23.4807C159.211 23.8315 159.495 24.1155 159.846 24.1155C160.196 24.1155 160.48 23.8315 160.48 23.4807V0.634751C160.48 0.284331 160.196 0 159.846 0Z" fill="#E0E0E0"/>
<path d="M150.327 10C149.976 10 149.692 10.2843 149.692 10.6348V13.173C149.692 13.5238 149.976 13.8078 150.327 13.8078C150.677 13.8078 150.962 13.5238 150.962 13.173V10.6348C150.962 10.2843 150.677 10 150.327 10Z" fill="#E0E0E0"/>
<path d="M169.366 10C169.016 10 168.731 10.284 168.731 10.6344V13.3804C168.731 13.7308 169.016 14.0151 169.366 14.0151C169.717 14.0151 170.001 13.7308 170.001 13.3804V10.6344C170.001 10.284 169.717 10 169.366 10Z" fill="#E0E0E0"/>
<path d="M153.44 9C153.09 9 152.806 9.28397 152.806 9.63439V14.8003C152.806 15.1507 153.09 15.435 153.44 15.435C153.791 15.435 154.075 15.1507 154.075 14.8003V9.63439C154.075 9.28397 153.791 9 153.44 9Z" fill="#E0E0E0"/>
<path d="M171.635 10C171.284 10 171 10.284 171 10.6344V13.8074C171 14.1582 171.284 14.4422 171.635 14.4422C171.985 14.4422 172.269 14.1582 172.269 13.8074V10.6344C172.269 10.284 171.985 10 171.635 10Z" fill="#E0E0E0"/>
<path d="M174.811 7C174.46 7 174.176 7.28433 174.176 7.63475V16.421C174.176 16.7718 174.46 17.0558 174.811 17.0558C175.161 17.0558 175.445 16.7718 175.445 16.421V7.63475C175.445 7.28433 175.161 7 174.811 7Z" fill="#E0E0E0"/>
<path d="M177.98 3C177.63 3 177.346 3.28397 177.346 3.63439V21.4038C177.346 21.7542 177.63 22.0385 177.98 22.0385C178.331 22.0385 178.615 21.7542 178.615 21.4038V3.63439C178.615 3.28397 178.331 3 177.98 3Z" fill="#E0E0E0"/>
<path d="M181.154 6C180.804 6 180.52 6.28397 180.52 6.63475V17.423C180.52 17.7734 180.804 18.0577 181.154 18.0577C181.505 18.0577 181.789 17.7734 181.789 17.423V6.63475C181.789 6.28397 181.505 6 181.154 6Z" fill="#E0E0E0"/>
<path d="M190.736 4C190.386 4 190.102 4.28397 190.102 4.63475V18.9127C190.102 19.2631 190.386 19.547 190.736 19.547C191.086 19.547 191.371 19.2631 191.371 18.9127V4.63475C191.371 4.28397 191.086 4 190.736 4Z" fill="#E0E0E0"/>
<path d="M197.02 5C196.669 5 196.385 5.28433 196.385 5.63475V18.3269C196.385 18.6776 196.669 18.9616 197.02 18.9616C197.37 18.9616 197.654 18.6776 197.654 18.3269V5.63475C197.654 5.28433 197.37 5 197.02 5Z" fill="#E0E0E0"/>
<path d="M200.193 8C199.843 8 199.559 8.28433 199.559 8.63475V14.9808C199.559 15.3312 199.843 15.6156 200.193 15.6156C200.544 15.6156 200.828 15.3312 200.828 14.9808V8.63475C200.828 8.28433 200.544 8 200.193 8Z" fill="#E0E0E0"/>
<path d="M193.846 0C193.495 0 193.211 0.284331 193.211 0.634751V23.4807C193.211 23.8315 193.495 24.1155 193.846 24.1155C194.196 24.1155 194.48 23.8315 194.48 23.4807V0.634751C194.48 0.284331 194.196 0 193.846 0Z" fill="#E0E0E0"/>
<path d="M184.327 10C183.976 10 183.692 10.2843 183.692 10.6348V13.173C183.692 13.5238 183.976 13.8078 184.327 13.8078C184.677 13.8078 184.962 13.5238 184.962 13.173V10.6348C184.962 10.2843 184.677 10 184.327 10Z" fill="#E0E0E0"/>
<path d="M203.365 10C203.015 10 202.73 10.284 202.73 10.6344V13.3804C202.73 13.7308 203.015 14.0151 203.365 14.0151C203.716 14.0151 204 13.7308 204 13.3804V10.6344C204 10.284 203.716 10 203.365 10Z" fill="#E0E0E0"/>
<path d="M187.439 9C187.089 9 186.805 9.28397 186.805 9.63439V14.8003C186.805 15.1507 187.089 15.435 187.439 15.435C187.79 15.435 188.074 15.1507 188.074 14.8003V9.63439C188.074 9.28397 187.79 9 187.439 9Z" fill="#E0E0E0"/>
<path d="M205.635 10C205.284 10 205 10.284 205 10.6344V13.8074C205 14.1582 205.284 14.4422 205.635 14.4422C205.985 14.4422 206.269 14.1582 206.269 13.8074V10.6344C206.269 10.284 205.985 10 205.635 10Z" fill="#E0E0E0"/>
<path d="M208.811 7C208.46 7 208.176 7.28433 208.176 7.63475V16.421C208.176 16.7718 208.46 17.0558 208.811 17.0558C209.161 17.0558 209.445 16.7718 209.445 16.421V7.63475C209.445 7.28433 209.161 7 208.811 7Z" fill="#E0E0E0"/>
<path d="M211.98 3C211.63 3 211.346 3.28397 211.346 3.63439V21.4038C211.346 21.7542 211.63 22.0385 211.98 22.0385C212.331 22.0385 212.615 21.7542 212.615 21.4038V3.63439C212.615 3.28397 212.331 3 211.98 3Z" fill="#E0E0E0"/>
<path d="M215.154 6C214.804 6 214.52 6.28397 214.52 6.63475V17.423C214.52 17.7734 214.804 18.0577 215.154 18.0577C215.505 18.0577 215.789 17.7734 215.789 17.423V6.63475C215.789 6.28397 215.505 6 215.154 6Z" fill="#E0E0E0"/>
<path d="M224.736 4C224.386 4 224.102 4.28397 224.102 4.63475V18.9127C224.102 19.2631 224.386 19.547 224.736 19.547C225.086 19.547 225.371 19.2631 225.371 18.9127V4.63475C225.371 4.28397 225.086 4 224.736 4Z" fill="#E0E0E0"/>
<path d="M231.02 5C230.669 5 230.385 5.28433 230.385 5.63475V18.3269C230.385 18.6776 230.669 18.9616 231.02 18.9616C231.37 18.9616 231.654 18.6776 231.654 18.3269V5.63475C231.654 5.28433 231.37 5 231.02 5Z" fill="#E0E0E0"/>
<path d="M234.193 8C233.843 8 233.559 8.28433 233.559 8.63475V14.9808C233.559 15.3312 233.843 15.6156 234.193 15.6156C234.544 15.6156 234.828 15.3312 234.828 14.9808V8.63475C234.828 8.28433 234.544 8 234.193 8Z" fill="#E0E0E0"/>
<path d="M227.846 0C227.495 0 227.211 0.284331 227.211 0.634751V23.4807C227.211 23.8315 227.495 24.1155 227.846 24.1155C228.196 24.1155 228.48 23.8315 228.48 23.4807V0.634751C228.48 0.284331 228.196 0 227.846 0Z" fill="#E0E0E0"/>
<path d="M218.326 10C217.975 10 217.691 10.2843 217.691 10.6348V13.173C217.691 13.5238 217.975 13.8078 218.326 13.8078C218.676 13.8078 218.961 13.5238 218.961 13.173V10.6348C218.961 10.2843 218.676 10 218.326 10Z" fill="#E0E0E0"/>
<path d="M237.365 10C237.015 10 236.73 10.284 236.73 10.6344V13.3804C236.73 13.7308 237.015 14.0151 237.365 14.0151C237.716 14.0151 238 13.7308 238 13.3804V10.6344C238 10.284 237.716 10 237.365 10Z" fill="#E0E0E0"/>
<path d="M221.439 9C221.089 9 220.805 9.28397 220.805 9.63439V14.8003C220.805 15.1507 221.089 15.435 221.439 15.435C221.79 15.435 222.074 15.1507 222.074 14.8003V9.63439C222.074 9.28397 221.79 9 221.439 9Z" fill="#E0E0E0"/>
<path d="M240.635 10C240.284 10 240 10.284 240 10.6344V13.8074C240 14.1582 240.284 14.4422 240.635 14.4422C240.985 14.4422 241.269 14.1582 241.269 13.8074V10.6344C241.269 10.284 240.985 10 240.635 10Z" fill="#E0E0E0"/>
<path d="M243.811 7C243.46 7 243.176 7.28433 243.176 7.63475V16.421C243.176 16.7718 243.46 17.0558 243.811 17.0558C244.161 17.0558 244.445 16.7718 244.445 16.421V7.63475C244.445 7.28433 244.161 7 243.811 7Z" fill="#E0E0E0"/>
<path d="M246.98 3C246.63 3 246.346 3.28397 246.346 3.63439V21.4038C246.346 21.7542 246.63 22.0385 246.98 22.0385C247.331 22.0385 247.615 21.7542 247.615 21.4038V3.63439C247.615 3.28397 247.331 3 246.98 3Z" fill="#E0E0E0"/>
<path d="M250.154 6C249.804 6 249.52 6.28397 249.52 6.63475V17.423C249.52 17.7734 249.804 18.0577 250.154 18.0577C250.505 18.0577 250.789 17.7734 250.789 17.423V6.63475C250.789 6.28397 250.505 6 250.154 6Z" fill="#E0E0E0"/>
<path d="M259.736 4C259.386 4 259.102 4.28397 259.102 4.63475V18.9127C259.102 19.2631 259.386 19.547 259.736 19.547C260.086 19.547 260.371 19.2631 260.371 18.9127V4.63475C260.371 4.28397 260.086 4 259.736 4Z" fill="#E0E0E0"/>
<path d="M266.02 5C265.669 5 265.385 5.28433 265.385 5.63475V18.3269C265.385 18.6776 265.669 18.9616 266.02 18.9616C266.37 18.9616 266.654 18.6776 266.654 18.3269V5.63475C266.654 5.28433 266.37 5 266.02 5Z" fill="#E0E0E0"/>
<path d="M269.193 8C268.843 8 268.559 8.28433 268.559 8.63475V14.9808C268.559 15.3312 268.843 15.6156 269.193 15.6156C269.544 15.6156 269.828 15.3312 269.828 14.9808V8.63475C269.828 8.28433 269.544 8 269.193 8Z" fill="#E0E0E0"/>
<path d="M262.846 0C262.495 0 262.211 0.284331 262.211 0.634751V23.4807C262.211 23.8315 262.495 24.1155 262.846 24.1155C263.196 24.1155 263.48 23.8315 263.48 23.4807V0.634751C263.48 0.284331 263.196 0 262.846 0Z" fill="#E0E0E0"/>
<path d="M253.326 10C252.975 10 252.691 10.2843 252.691 10.6348V13.173C252.691 13.5238 252.975 13.8078 253.326 13.8078C253.676 13.8078 253.961 13.5238 253.961 13.173V10.6348C253.961 10.2843 253.676 10 253.326 10Z" fill="#E0E0E0"/>
<path d="M272.365 10C272.015 10 271.73 10.284 271.73 10.6344V13.3804C271.73 13.7308 272.015 14.0151 272.365 14.0151C272.716 14.0151 273 13.7308 273 13.3804V10.6344C273 10.284 272.716 10 272.365 10Z" fill="#E0E0E0"/>
<path d="M256.439 9C256.089 9 255.805 9.28397 255.805 9.63439V14.8003C255.805 15.1507 256.089 15.435 256.439 15.435C256.79 15.435 257.074 15.1507 257.074 14.8003V9.63439C257.074 9.28397 256.79 9 256.439 9Z" fill="#E0E0E0"/>
<path d="M274.635 10C274.284 10 274 10.284 274 10.6344V13.8074C274 14.1582 274.284 14.4422 274.635 14.4422C274.985 14.4422 275.269 14.1582 275.269 13.8074V10.6344C275.269 10.284 274.985 10 274.635 10Z" fill="#E0E0E0"/>
<path d="M277.811 7C277.46 7 277.176 7.28433 277.176 7.63475V16.421C277.176 16.7718 277.46 17.0558 277.811 17.0558C278.161 17.0558 278.445 16.7718 278.445 16.421V7.63475C278.445 7.28433 278.161 7 277.811 7Z" fill="#E0E0E0"/>
<path d="M280.98 3C280.63 3 280.346 3.28397 280.346 3.63439V21.4038C280.346 21.7542 280.63 22.0385 280.98 22.0385C281.331 22.0385 281.615 21.7542 281.615 21.4038V3.63439C281.615 3.28397 281.331 3 280.98 3Z" fill="#E0E0E0"/>
<path d="M284.154 6C283.804 6 283.52 6.28397 283.52 6.63475V17.423C283.52 17.7734 283.804 18.0577 284.154 18.0577C284.505 18.0577 284.789 17.7734 284.789 17.423V6.63475C284.789 6.28397 284.505 6 284.154 6Z" fill="#E0E0E0"/>
<path d="M293.736 4C293.386 4 293.102 4.28397 293.102 4.63475V18.9127C293.102 19.2631 293.386 19.547 293.736 19.547C294.086 19.547 294.371 19.2631 294.371 18.9127V4.63475C294.371 4.28397 294.086 4 293.736 4Z" fill="#E0E0E0"/>
<path d="M300.02 5C299.669 5 299.385 5.28433 299.385 5.63475V18.3269C299.385 18.6776 299.669 18.9616 300.02 18.9616C300.37 18.9616 300.654 18.6776 300.654 18.3269V5.63475C300.654 5.28433 300.37 5 300.02 5Z" fill="#E0E0E0"/>
<path d="M303.193 8C302.843 8 302.559 8.28433 302.559 8.63475V14.9808C302.559 15.3312 302.843 15.6156 303.193 15.6156C303.544 15.6156 303.828 15.3312 303.828 14.9808V8.63475C303.828 8.28433 303.544 8 303.193 8Z" fill="#E0E0E0"/>
<path d="M296.846 0C296.495 0 296.211 0.284331 296.211 0.634751V23.4807C296.211 23.8315 296.495 24.1155 296.846 24.1155C297.196 24.1155 297.48 23.8315 297.48 23.4807V0.634751C297.48 0.284331 297.196 0 296.846 0Z" fill="#E0E0E0"/>
<path d="M287.326 10C286.975 10 286.691 10.2843 286.691 10.6348V13.173C286.691 13.5238 286.975 13.8078 287.326 13.8078C287.676 13.8078 287.961 13.5238 287.961 13.173V10.6348C287.961 10.2843 287.676 10 287.326 10Z" fill="#E0E0E0"/>
<path d="M306.365 10C306.015 10 305.73 10.284 305.73 10.6344V13.3804C305.73 13.7308 306.015 14.0151 306.365 14.0151C306.716 14.0151 307 13.7308 307 13.3804V10.6344C307 10.284 306.716 10 306.365 10Z" fill="#E0E0E0"/>
<path d="M290.439 9C290.089 9 289.805 9.28397 289.805 9.63439V14.8003C289.805 15.1507 290.089 15.435 290.439 15.435C290.79 15.435 291.074 15.1507 291.074 14.8003V9.63439C291.074 9.28397 290.79 9 290.439 9Z" fill="#E0E0E0"/>
<path d="M308.635 10C308.284 10 308 10.284 308 10.6344V13.8074C308 14.1582 308.284 14.4422 308.635 14.4422C308.985 14.4422 309.269 14.1582 309.269 13.8074V10.6344C309.269 10.284 308.985 10 308.635 10Z" fill="#E0E0E0"/>
<path d="M311.811 7C311.46 7 311.176 7.28433 311.176 7.63475V16.421C311.176 16.7718 311.46 17.0558 311.811 17.0558C312.161 17.0558 312.445 16.7718 312.445 16.421V7.63475C312.445 7.28433 312.161 7 311.811 7Z" fill="#E0E0E0"/>
<path d="M314.98 3C314.63 3 314.346 3.28397 314.346 3.63439V21.4038C314.346 21.7542 314.63 22.0385 314.98 22.0385C315.331 22.0385 315.615 21.7542 315.615 21.4038V3.63439C315.615 3.28397 315.331 3 314.98 3Z" fill="#E0E0E0"/>
<path d="M318.154 6C317.804 6 317.52 6.28397 317.52 6.63475V17.423C317.52 17.7734 317.804 18.0577 318.154 18.0577C318.505 18.0577 318.789 17.7734 318.789 17.423V6.63475C318.789 6.28397 318.505 6 318.154 6Z" fill="#E0E0E0"/>
<path d="M327.736 4C327.386 4 327.102 4.28397 327.102 4.63475V18.9127C327.102 19.2631 327.386 19.547 327.736 19.547C328.086 19.547 328.371 19.2631 328.371 18.9127V4.63475C328.371 4.28397 328.086 4 327.736 4Z" fill="#E0E0E0"/>
<path d="M334.02 5C333.669 5 333.385 5.28433 333.385 5.63475V18.3269C333.385 18.6776 333.669 18.9616 334.02 18.9616C334.37 18.9616 334.654 18.6776 334.654 18.3269V5.63475C334.654 5.28433 334.37 5 334.02 5Z" fill="#E0E0E0"/>
<path d="M337.193 8C336.843 8 336.559 8.28433 336.559 8.63475V14.9808C336.559 15.3312 336.843 15.6156 337.193 15.6156C337.544 15.6156 337.828 15.3312 337.828 14.9808V8.63475C337.828 8.28433 337.544 8 337.193 8Z" fill="#E0E0E0"/>
<path d="M330.846 0C330.495 0 330.211 0.284331 330.211 0.634751V23.4807C330.211 23.8315 330.495 24.1155 330.846 24.1155C331.196 24.1155 331.48 23.8315 331.48 23.4807V0.634751C331.48 0.284331 331.196 0 330.846 0Z" fill="#E0E0E0"/>
<path d="M321.326 10C320.975 10 320.691 10.2843 320.691 10.6348V13.173C320.691 13.5238 320.975 13.8078 321.326 13.8078C321.676 13.8078 321.961 13.5238 321.961 13.173V10.6348C321.961 10.2843 321.676 10 321.326 10Z" fill="#E0E0E0"/>
<path d="M340.365 10C340.015 10 339.73 10.284 339.73 10.6344V13.3804C339.73 13.7308 340.015 14.0151 340.365 14.0151C340.716 14.0151 341 13.7308 341 13.3804V10.6344C341 10.284 340.716 10 340.365 10Z" fill="#E0E0E0"/>
<path d="M324.439 9C324.089 9 323.805 9.28397 323.805 9.63439V14.8003C323.805 15.1507 324.089 15.435 324.439 15.435C324.79 15.435 325.074 15.1507 325.074 14.8003V9.63439C325.074 9.28397 324.79 9 324.439 9Z" fill="#E0E0E0"/>
<path d="M342.635 10C342.284 10 342 10.284 342 10.6344V13.8074C342 14.1582 342.284 14.4422 342.635 14.4422C342.985 14.4422 343.269 14.1582 343.269 13.8074V10.6344C343.269 10.284 342.985 10 342.635 10Z" fill="#E0E0E0"/>
<path d="M345.811 7C345.46 7 345.176 7.28433 345.176 7.63475V16.421C345.176 16.7718 345.46 17.0558 345.811 17.0558C346.161 17.0558 346.445 16.7718 346.445 16.421V7.63475C346.445 7.28433 346.161 7 345.811 7Z" fill="#E0E0E0"/>
<path d="M348.98 3C348.63 3 348.346 3.28397 348.346 3.63439V21.4038C348.346 21.7542 348.63 22.0385 348.98 22.0385C349.331 22.0385 349.615 21.7542 349.615 21.4038V3.63439C349.615 3.28397 349.331 3 348.98 3Z" fill="#E0E0E0"/>
<path d="M352.154 6C351.804 6 351.52 6.28397 351.52 6.63475V17.423C351.52 17.7734 351.804 18.0577 352.154 18.0577C352.505 18.0577 352.789 17.7734 352.789 17.423V6.63475C352.789 6.28397 352.505 6 352.154 6Z" fill="#E0E0E0"/>
<path d="M355.326 10C354.975 10 354.691 10.2843 354.691 10.6348V13.173C354.691 13.5238 354.975 13.8078 355.326 13.8078C355.676 13.8078 355.961 13.5238 355.961 13.173V10.6348C355.961 10.2843 355.676 10 355.326 10Z" fill="#E0E0E0"/>
<path d="M358.439 9C358.089 9 357.805 9.28397 357.805 9.63439V14.8003C357.805 15.1507 358.089 15.435 358.439 15.435C358.79 15.435 359.074 15.1507 359.074 14.8003V9.63439C359.074 9.28397 358.79 9 358.439 9Z" fill="#E0E0E0"/>
</svg>
